<svg xmlns="http://www.w3.org/2000/svg" width="18" height="18" viewBox="0 0 18 18">
  <path d="M17.64 9.2a10.34 10.34 0 0 0-.16-1.84H9v3.48h4.84a4.14 4.14 0 0 1-1.79 2.71v2.26h2.9a8.78 8.78 0 0 0 2.69-6.61z" fill="#4285F4"/>
  <path d="M9 18a8.59 8.59 0 0 0 5.95-2.18l-2.9-2.26a5.39 5.39 0 0 1-8.05-2.83H.96v2.33A9 9 0 0 0 9 18z" fill="#34A853"/>
  <path d="M3.95 10.71a5.41 5.41 0 0 1 0-3.42V4.96H.96a9 9 0 0 0 0 8.07l2.99-2.32z" fill="#FBBC05"/>
  <path d="M9 3.58a4.86 4.86 0 0 1 3.44 1.34l2.58-2.58A8.65 8.65 0 0 0 9 0a9 9 0 0 0-8.04 4.96l2.99 2.32A5.39 5.39 0 0 1 9 3.58z" fill="#EA4335"/>
</svg>
